<svg width="206" height="107" viewBox="0 0 206 107" fill="none" xmlns="http://www.w3.org/2000/svg">
<path d="M53.466 90.024C45.8713 90.024 39.3433 88.4027 33.882 85.16C28.4207 81.832 24.2393 77.3947 21.338 71.848C18.4367 66.3013 16.986 60.2 16.986 53.544C16.986 46.8027 18.4367 40.7013 21.338 35.24C24.2393 29.6933 28.4207 25.2987 33.882 22.056C39.3433 18.728 45.8713 17.064 53.466 17.064C59.0127 17.064 64.0047 18.0027 68.442 19.88C72.8793 21.672 76.634 24.1893 79.706 27.432L77.018 30.12C74.202 27.304 70.8313 25.0853 66.906 23.464C62.9807 21.8427 58.5007 21.032 53.466 21.032C46.6393 21.032 40.7513 22.5253 35.802 25.512C30.938 28.4133 27.226 32.3387 24.666 37.288C22.106 42.152 20.826 47.5707 20.826 53.544C20.826 59.5173 22.106 64.9787 24.666 69.928C27.226 74.792 30.938 78.7173 35.802 81.704C40.7513 84.6053 46.6393 86.056 53.466 86.056C58.5007 86.056 62.9807 85.2453 66.906 83.624C70.8313 82.0027 74.202 79.784 77.018 76.968L79.706 79.656C76.634 82.8133 72.8793 85.3307 68.442 87.208C64.0047 89.0853 59.0127 90.024 53.466 90.024ZM53.466 98.472C46.6393 98.472 40.4527 97.32 34.906 95.016C29.4447 92.6267 24.7087 89.384 20.698 85.288C16.7727 81.192 13.7433 76.456 11.61 71.08C9.562 65.6187 8.538 59.7733 8.538 53.544C8.538 47.3147 9.562 41.512 11.61 36.136C13.7433 30.6747 16.7727 25.896 20.698 21.8C24.7087 17.6187 29.4447 14.376 34.906 12.072C40.4527 9.768 46.6393 8.616 53.466 8.616C60.2073 8.616 66.266 9.768 71.642 12.072C77.1033 14.2907 81.7967 17.4053 85.722 21.416L82.906 24.232C79.4073 20.5627 75.1407 17.704 70.106 15.656C65.1567 13.608 59.61 12.584 53.466 12.584C45.1033 12.584 37.8073 14.4187 31.578 18.088C25.434 21.7573 20.698 26.7067 17.37 32.936C14.042 39.08 12.378 45.9493 12.378 53.544C12.378 61.0533 14.042 67.9227 17.37 74.152C20.698 80.3813 25.434 85.3307 31.578 89C37.8073 92.6693 45.1033 94.504 53.466 94.504C59.61 94.504 65.1567 93.48 70.106 91.432C75.1407 89.384 79.4073 86.5253 82.906 82.856L85.722 85.672C81.7967 89.5973 77.1033 92.712 71.642 95.016C66.266 97.32 60.2073 98.472 53.466 98.472ZM53.466 106.92C45.4447 106.92 38.1487 105.555 31.578 102.824C25.0927 100.008 19.5033 96.168 14.81 91.304C10.1167 86.44 6.49 80.808 3.93 74.408C1.37 67.9227 0.0900002 60.968 0.0900002 53.544C0.0900002 46.12 1.37 39.208 3.93 32.808C6.49 26.3227 10.1167 20.648 14.81 15.784C19.5033 10.92 25.0927 7.12267 31.578 4.392C38.1487 1.57599 45.4447 0.167992 53.466 0.167992C61.3167 0.167992 68.4847 1.53333 74.97 4.26399C81.4553 6.90933 87.0447 10.6213 91.738 15.4L89.05 18.088C84.698 13.736 79.4927 10.3227 73.434 7.84799C67.4607 5.28799 60.8047 4.008 53.466 4.008C45.9567 4.008 39.1727 5.28799 33.114 7.84799C27.0553 10.408 21.85 13.9493 17.498 18.472C13.146 22.9947 9.77533 28.2853 7.386 34.344C5.082 40.3173 3.93 46.7173 3.93 53.544C3.93 60.3707 5.082 66.8133 7.386 72.872C9.77533 78.8453 13.146 84.0933 17.498 88.616C21.85 93.1387 27.0553 96.68 33.114 99.24C39.1727 101.8 45.9567 103.08 53.466 103.08C60.8047 103.08 67.4607 101.843 73.434 99.368C79.4927 96.808 84.698 93.352 89.05 89L91.738 91.688C87.0447 96.3813 81.4553 100.093 74.97 102.824C68.4847 105.555 61.3167 106.92 53.466 106.92ZM118.921 105V2.088H122.761V105H118.921ZM102.025 105V2.088H105.865V105H102.025ZM110.473 105V2.088H114.313V105H110.473ZM201.737 105V2.088H205.577V105H201.737ZM184.841 105V2.088H188.681V105H184.841ZM193.289 105V2.088H197.129V105H193.289ZM158.601 45.608L156.297 42.152L180.233 7.464V14.248L158.601 45.608ZM163.721 67.752L127.369 15.784V9.256L166.153 64.424L163.721 67.752ZM163.849 53.032L161.545 49.576L180.233 22.952V29.608L163.849 53.032ZM158.601 75.304L127.369 30.76V23.976L160.905 71.848L158.601 75.304ZM168.969 60.328L166.665 57L180.233 37.672V44.328L168.969 60.328ZM153.481 82.6L127.369 45.48V38.696L155.785 79.272L153.481 82.6Z" fill="white"/>
</svg>
