<svg version="1.1" id="Layer_1" xmlns="http://www.w3.org/2000/svg" xmlns:xlink="http://www.w3.org/1999/xlink" x="0px" y="0px" viewBox="0 0 500 500" style="width: 140px;" xml:space="preserve" data-imageid="girl-swimming-87" imageName="Girl Swimming" class="illustrations_image">
<style type="text/css">
	.st0_girl-swimming-87{fill:#68E1FD;}
	.st1_girl-swimming-87{fill:#231F20;}
	.st2_girl-swimming-87{fill:#FFFFFF;}
	.st3_girl-swimming-87{fill:#D1D3D4;}
</style>
<g id="Floating_Tire_girl-swimming-87">
	<path class="st0_girl-swimming-87 targetColor" d="M372.6,278.8c-1-62.9-63.4-113.7-140.1-113.7c-38.2,0-72.8,12.5-98.1,32.9c-26,20.9-42.1,50.1-42.1,82.4&#10;&#9;&#9;c0,63.7,62.8,115.3,140.2,115.3s140.2-51.6,140.2-115.3C372.6,279.9,372.6,279.3,372.6,278.8z M319.6,263.8&#10;&#9;&#9;c0,30.5-39,55.2-87.1,55.2s-87.1-24.7-87.1-55.2s39-55.2,87.1-55.2S319.5,233.4,319.6,263.8L319.6,263.8z" style="fill: rgb(60, 173, 110);"/>
	<path class="st1_girl-swimming-87" d="M232.4,396.4c-77.7,0-140.9-52-140.9-116c0-31.5,15-60.9,42.4-82.9c26.4-21.3,61.4-33.1,98.5-33.1&#10;&#9;&#9;c37.3,0,72.4,11.9,98.9,33.4s41.4,50.3,41.9,81c0,0.5,0,1.1,0,1.7C373.3,344.3,310.1,396.4,232.4,396.4z M232.4,165.8&#10;&#9;&#9;c-36.8,0-71.4,11.6-97.6,32.8c-27,21.7-41.8,50.8-41.8,81.8C93,343.6,155.5,395,232.4,395s139.5-51.4,139.5-114.6&#10;&#9;&#9;c0-0.5,0-1.1,0-1.6l0,0c-0.5-30.2-15.2-58.6-41.4-79.9S269.4,165.8,232.4,165.8L232.4,165.8z M232.4,319.7&#10;&#9;&#9;c-48.4,0-87.8-25.1-87.8-55.9S184,208,232.4,208s87.8,25.1,87.8,55.9S280.9,319.7,232.4,319.7L232.4,319.7z M232.4,209.4&#10;&#9;&#9;c-47.6,0-86.4,24.4-86.4,54.5s38.8,54.5,86.4,54.5s86.4-24.4,86.4-54.5S280.1,209.4,232.4,209.4L232.4,209.4z"/>
	<path class="st1_girl-swimming-87" d="M149.2,368c-0.3,0-0.6-0.3-0.7-0.6c-5.7-41.4,25.2-55.2,25.5-55.4c0.4-0.1,0.8,0.1,0.9,0.4&#10;&#9;&#9;c0.1,0.3,0,0.7-0.3,0.9c-0.3,0.1-30.2,13.6-24.6,53.9c0.1,0.4-0.2,0.7-0.6,0.8c0,0,0,0,0,0L149.2,368z"/>
</g>
<g id="Character_girl-swimming-87">
	<path class="st2_girl-swimming-87" d="M287.1,160c-17.2-8.5-86.5-3.9-86.5-3.9l0.1,0.5c-12.1-9.4-34.5-1-45.4,7.2c-12.8,9.7-21.5,24.1-27.7,38.7&#10;&#9;&#9;c-1.4,3.2-2.6,6.6-2.2,10.1s2.3,6.3,4.4,9c9.5,12.8,22,22.9,34.3,32.9c0.6,0.6,1.3,1,2.1,1.2c1.2,0.1,2.4-0.1,3.5-0.8&#10;&#9;&#9;c15.2-7.4,29.1-18.2,37.4-33.3c4.5-8.2,11.4-28.8,12.2-38.1c13.4-1.5,39.8,1,47.8,4.2c9.6,3.8,21,55.6,21,55.6l23.4-9.6&#10;&#9;&#9;C311.4,233.9,304.3,168.6,287.1,160L287.1,160z"/>
	<path class="st1_girl-swimming-87" d="M166.8,256.6c-0.3,0-0.6,0-0.8-0.1c-0.9-0.3-1.7-0.7-2.4-1.4c-12.2-9.9-24.8-20.1-34.4-33.1&#10;&#9;&#9;c-2.1-2.8-4.1-5.9-4.5-9.4c-0.4-3.7,0.9-7.3,2.3-10.5c7.5-17.8,16.7-30.5,27.9-39s33-16.4,45.5-7.8c0.1,0,0.1,0,0.2,0&#10;&#9;&#9;c2.8-0.2,69.7-4.5,86.8,4l0,0c17.4,8.6,24.5,71.8,24.8,74.4c0,0.3-0.1,0.6-0.4,0.7l-23.4,9.6c-0.2,0.1-0.4,0.1-0.6,0&#10;&#9;&#9;c-0.2-0.1-0.3-0.3-0.4-0.5c-3.2-14.3-13-52.1-20.6-55.1c-7.9-3.2-33.9-5.5-46.9-4.2c-1,9.6-7.8,29.8-12.2,37.8&#10;&#9;&#9;c-7.6,13.8-20.3,25.1-37.8,33.6C169,256.3,167.9,256.7,166.8,256.6L166.8,256.6z M187,153.2c-10.8,0-23.5,5.3-31.3,11.2&#10;&#9;&#9;c-11,8.3-20,20.9-27.4,38.4c-1.3,3-2.6,6.4-2.2,9.8c0.4,3.2,2.2,6.1,4.2,8.7c9.5,12.8,22,22.9,34.2,32.8c1.2,1.4,3.4,1.6,4.8,0.4&#10;&#9;&#9;c17.2-8.4,29.7-19.5,37.1-33c4.4-8.1,11.4-28.6,12.1-37.8c0-0.3,0.3-0.6,0.6-0.6c13.2-1.4,39.7,0.9,48.1,4.3&#10;&#9;&#9;c9.2,3.7,19.7,48.4,21.3,55.3l22.2-9c-0.7-6.2-8.1-65-23.9-72.8s-77.8-4.4-85.4-3.9c0,0.2-0.1,0.3-0.3,0.4c-0.2,0.2-0.6,0.2-0.8,0&#10;&#9;&#9;C196.7,154.5,192,153.3,187,153.2L187,153.2z"/>
	<path class="st2_girl-swimming-87" d="M136.8,183.7c-0.9,2.1-63.2,47.4-69.9,72.2c-6.6,24.5,38.3,88.2,38.3,88.2s14.4,26.4,19.4,26.4&#10;&#9;&#9;s7.2-2.3,7.9-6.6s-4.7-17.9-4.7-17.9s8.8,7.3,9.3,3.8s-13.5-11.5-13.5-11.5s-17.5-67.8-15.3-74.5s39.5-33.9,39.5-33.9"/>
	<path class="st1_girl-swimming-87" d="M124.6,371.2c-5.2,0-17.6-22.3-20-26.8c-0.1-0.1-11.3-16.1-21.6-34.9c-14-25.4-19.6-43.4-16.8-53.8&#10;&#9;&#9;c5.3-19.8,45.4-52.3,62.5-66.1c3.8-3.1,7.2-5.8,7.5-6.3c0.1-0.3,0.5-0.5,0.9-0.3c0,0,0,0,0,0c0.4,0.2,0.5,0.6,0.4,0.9&#10;&#9;&#9;c-0.2,0.6-1.6,1.7-7.9,6.8c-17,13.8-56.8,46-62,65.4c-6.4,23.9,37.7,86.9,38.2,87.6c5.5,10.1,15.5,26.1,18.9,26.1&#10;&#9;&#9;c4.4,0,6.6-1.8,7.2-6s-4.6-17.4-4.7-17.6c-0.1-0.4,0-0.8,0.4-0.9c0.2-0.1,0.5,0,0.7,0.1c3,2.5,6.9,5,8,4.6c0.1,0,0.1,0,0.2-0.3&#10;&#9;&#9;c0.3-2.1-7.5-7.5-13.1-10.8c-0.2-0.1-0.3-0.2-0.3-0.4c-0.7-2.8-17.5-68.1-15.3-74.9s38.2-33.1,39.8-34.2c0.3-0.2,0.8-0.2,1,0.1&#10;&#9;&#9;c0.2,0.3,0.2,0.8-0.2,1l0,0c-10.3,7.5-37.5,28.2-39.3,33.6s10.3,54.8,15.2,73.9c2.9,1.7,14.1,8.4,13.6,12c-0.1,0.6-0.5,1.2-1.1,1.4&#10;&#9;&#9;c-1.7,0.6-5.1-1.5-7.4-3.2c1.5,4.1,4.4,12.5,3.9,15.9C132.4,369,129.7,371.3,124.6,371.2L124.6,371.2z"/>
	<path class="st1_girl-swimming-87" d="M141.6,175.7c0,0,14.8,28.7,25.6,38c0,0,16.2-7.2,29.8-1.7c0,0-4.8-18.3,4.8-28.3L187,151.8l6.2-5.4&#10;&#9;&#9;c0,0,13.8,31.1,17.7,33.6s13.9,5.4,13.9,5.4l34.9,63.3l11.1,7.7l-70.1,50.2c0,0-40.9-39.9-49.7-57.1c4.4-18.6,6.5-28.9,6.5-28.9&#10;&#9;&#9;s-19.7-27.6-21.8-36.9S141.6,175.7,141.6,175.7L141.6,175.7z"/>
	<path class="st1_girl-swimming-87" d="M200.5,307.5l-0.4-0.4c-1.7-1.6-41-40.2-49.8-57.3l-0.1-0.2l0.1-0.2c3.9-16.6,6.1-26.8,6.5-28.6&#10;&#9;&#9;c-2.1-3-19.7-28-21.8-36.9c-0.7-3.2-0.4-5.6,1-7.1c2.1-2.2,5.6-1.8,5.7-1.7h0.4l0.2,0.3c0.1,0.3,14.5,28.1,25.2,37.5&#10;&#9;&#9;c2.6-1.1,16.3-6.3,28.7-2c-0.9-4.4-3-18.6,4.9-27.3l-14.8-31.9l7.3-6.3l0.4,0.9c5.5,12.4,14.7,31.5,17.4,33.3&#10;&#9;&#9;c3.7,2.4,13.6,5.3,13.7,5.3l0.3,0.1l0.1,0.2l34.8,63.1l11.8,8.2L200.5,307.5L200.5,307.5z M151.6,249.4c8.4,16.1,44.7,52,49,56.3&#10;&#9;&#9;l68.8-49.3l-10.4-7.2L224.2,186c-1.7-0.5-10.2-3.1-13.8-5.4s-15-27.3-17.6-33l-5.1,4.4l14.8,31.9l-0.3,0.4&#10;&#9;&#9;c-9.2,9.6-4.6,27.4-4.6,27.6l0.4,1.4l-1.3-0.5c-13.2-5.3-29.1,1.6-29.2,1.7l-0.4,0.2l-0.3-0.3c-10.4-8.9-23.9-34.4-25.6-37.9&#10;&#9;&#9;c-1.5-0.2-3,0.3-4.1,1.3c-1.1,1.2-1.3,3.2-0.7,5.9c2.1,9,21.5,36.4,21.7,36.6l0.2,0.2l-0.1,0.3&#10;&#9;&#9;C158.1,220.9,155.9,231.3,151.6,249.4L151.6,249.4z"/>
	<path class="st2_girl-swimming-87" d="M182.4,166.5c-4,0.9-7.9,1.7-11.4,4.3c-5.2,3.9-9,9.2-14.4,13c-5.8,4-12.7,6.8-19.1,9.7&#10;&#9;&#9;c-1.9,0.8,1.1,2.4-0.9,2.1c-7.1-1.2-10.7-8.8-13.6-14.5c-6.6-13.1-12-27-14.8-41.4c-1.5-7.5-6.4-35.3,9.6-30.3&#10;&#9;&#9;c-3.6-1.1,5.3-12.5,6.7-13.8c13-11.9,33.5-5.5,43.9,6.6c7.5,8.8,12.8,18.7,22.4,25.7c4.2,3.1,9,5.8,11.6,10.4&#10;&#9;&#9;c3.1,5.5,1.9,12.7-1.8,17.8s-9.6,8.2-15.7,9.8C184.1,166.2,183.3,166.3,182.4,166.5L182.4,166.5z"/>
	<path class="st1_girl-swimming-87" d="M137.1,196.4c-0.2,0-0.4,0-0.5-0.1c-7.2-1.2-10.8-8.4-13.7-14.2l-0.3-0.7c-7.5-14.9-12.3-28.5-14.9-41.6&#10;&#9;&#9;c-2.1-11-3.5-25.1,2-30c1.9-1.6,4.4-2.2,6.8-1.6c-0.2-3.8,7-12.5,7.8-13.2c5.2-4.7,12.1-7,19.1-6.4c10,0.8,19.2,5.6,25.8,13.1&#10;&#9;&#9;c2.5,2.9,4.7,5.9,6.9,8.8c4.6,6.2,9,12.1,15.4,16.8c0.8,0.6,1.6,1.1,2.4,1.7c3.6,2.5,7.3,5.1,9.4,9c3,5.5,2.3,12.9-1.9,18.6&#10;&#9;&#9;c-4.4,6-11.2,8.8-16.1,10.1c-0.8,0.2-1.6,0.4-2.5,0.6l-0.6,0.1c-3.8,0.9-7.3,1.7-10.5,4c-2.4,1.9-4.6,3.9-6.6,6.1&#10;&#9;&#9;c-2.4,2.5-5,4.9-7.8,6.9c-4.9,3.4-10.7,5.9-16.2,8.4c-1,0.4-2.1,0.9-3.1,1.4c-0.1,0-0.2,0.1-0.2,0.1c0.1,0.2,0.1,0.3,0.2,0.4&#10;&#9;&#9;c0.3,0.3,0.3,0.8,0.1,1.2C137.7,196.3,137.4,196.4,137.1,196.4L137.1,196.4z M136.7,195.6L136.7,195.6z M114.3,109.5&#10;&#9;&#9;c-1.4,0-2.8,0.5-3.9,1.4c-3.9,3.5-4.4,13.7-1.5,28.7c2.5,12.9,7.3,26.4,14.8,41.2l0.3,0.7c2.7,5.4,6,12.1,12.2,13.4&#10;&#9;&#9;c-0.1-0.3-0.1-0.7,0-1c0.2-0.5,0.5-0.8,1-1l3.1-1.4c5.5-2.4,11.1-4.9,16-8.2c2.7-2,5.3-4.3,7.6-6.8c2.1-2.2,4.4-4.3,6.8-6.2&#10;&#9;&#9;c3.4-2.6,7.1-3.4,11.1-4.3l0.6-0.1l0,0c0.8-0.2,1.6-0.4,2.4-0.6c4.7-1.2,11.2-3.9,15.3-9.6c3.8-5.2,4.5-12.1,1.8-17.1&#10;&#9;&#9;c-2-3.6-5.6-6.1-9-8.5c-0.8-0.6-1.6-1.1-2.4-1.7c-6.6-4.8-11.2-11-15.7-17.1c-2.1-2.9-4.4-5.9-6.8-8.7&#10;&#9;&#9;c-6.3-7.3-15.3-11.8-24.9-12.6c-6.6-0.6-13.2,1.6-18.1,6.1c-1.5,1.4-7.8,9.9-7.3,12.3c0,0.2,0.2,0.3,0.3,0.4&#10;&#9;&#9;c0.4,0.1,0.6,0.5,0.5,0.9c-0.1,0.4-0.5,0.6-0.9,0.5c0,0,0,0,0,0l0,0C116.5,109.7,115.4,109.5,114.3,109.5L114.3,109.5z"/>
	<path class="st2_girl-swimming-87" d="M151.5,187.9L131.9,150c0,0,10.9-15.6,3.1-28.8c0,0,21.8,0.2,30.5-10.7c0,0,12.9,13,15.8,26.1&#10;&#9;&#9;c1.8,7.4-0.9,15.2-7,19.8l9.9,21"/>
	<path class="st1_girl-swimming-87" d="M151.5,188.6c-0.3,0-0.5-0.1-0.6-0.4l-19.6-37.9c-0.1-0.2-0.1-0.5,0.1-0.7c0.1-0.1,10.5-15.4,3.1-28.1&#10;&#9;&#9;c-0.1-0.2-0.1-0.5,0-0.7c0.1-0.2,0.4-0.3,0.6-0.3c0.2,0,21.5,0.1,29.9-10.4c0.1-0.2,0.3-0.3,0.5-0.3c0.2,0,0.4,0.1,0.5,0.2&#10;&#9;&#9;c0.5,0.5,13.1,13.3,16,26.5c1.8,7.5-0.9,15.3-6.8,20.2l9.6,20.5c0.2,0.4,0,0.8-0.3,0.9c-0.4,0.2-0.8,0-0.9-0.3l0,0l-9.9-21&#10;&#9;&#9;c-0.1-0.3,0-0.7,0.2-0.9c0.4-0.3,9.4-6.6,6.7-19.1c-2.4-11.3-12.6-22.6-15.1-25.2c-8,9.2-24.7,10.2-29.4,10.3&#10;&#9;&#9;c6.2,12.1-1.9,25.8-3.4,28.2l19.4,37.5c0.2,0.3,0,0.8-0.3,0.9C151.7,188.5,151.6,188.6,151.5,188.6L151.5,188.6z"/>
	<path class="st2_girl-swimming-87" d="M137.9,143.9c0,0-13.3-11.5-16.3,1.1s12.4,17.7,18.5,13.8"/>
	<path class="st1_girl-swimming-87" d="M134.9,160.8c-3.3,0-6.5-1.1-9.2-2.9c-4.3-2.8-6.2-8.1-4.8-13c0.8-3.3,2.4-5.4,4.7-6.1&#10;&#9;&#9;c5.3-1.7,12.5,4.4,12.8,4.7c0.3,0.3,0.3,0.7,0.1,1c-0.2,0.3-0.7,0.3-1,0.1c0,0,0,0,0,0c-0.1-0.1-6.9-5.9-11.5-4.4&#10;&#9;&#9;c-1.8,0.6-3.1,2.3-3.7,5.1c-1.2,4.4,0.5,9,4.2,11.5c4.1,2.9,10,3.6,13.2,1.5c0.3-0.2,0.8-0.1,1,0.2c0,0,0,0,0,0&#10;&#9;&#9;c0.2,0.3,0.1,0.8-0.2,1c0,0,0,0,0,0C138.7,160.4,136.8,160.9,134.9,160.8L134.9,160.8z"/>
	<path class="st1_girl-swimming-87" d="M166.1,143.5c-0.3,0-0.6-0.2-0.7-0.6c-0.1-0.4,0.2-0.7,0.5-0.8c0,0,0,0,0,0c0,0,4.7-0.9,6.3-2.9c0,0,0,0,0-0.1&#10;&#9;&#9;c-0.4-1.7-6.7-5.7-11.1-8c-0.3-0.2-0.5-0.6-0.3-0.9c0.2-0.3,0.6-0.5,0.9-0.3l0,0c1.9,1,11.2,6,11.8,9c0.1,0.4,0,0.9-0.3,1.3&#10;&#9;&#9;c-1.9,2.5-6.9,3.4-7.1,3.4L166.1,143.5z"/>
	<path class="st1_girl-swimming-87" d="M161.9,152.5c-2.9,0.1-5.8-0.7-8.4-2.1c-0.3-0.2-0.3-0.7-0.1-1c0,0,0,0,0,0c0.3-0.3,0.7-0.3,1-0.1&#10;&#9;&#9;c3.2,1.7,6.9,2.2,10.5,1.5c4.7-1,8.5-4.4,11.1-10c0.1-0.4,0.5-0.5,0.9-0.4c0.4,0.1,0.5,0.5,0.4,0.9c0,0,0,0.1,0,0.1&#10;&#9;&#9;c-2.9,6.1-7,9.7-12.2,10.8C164.2,152.3,163.1,152.5,161.9,152.5L161.9,152.5z"/>
	<path class="st1_girl-swimming-87" d="M174.2,156.4c0,0-10.6,6.7-17.8,8.1c0,0,13.4,10.3,24,5.2L174.2,156.4L174.2,156.4z"/>
	<path class="st1_girl-swimming-87" d="M173.9,171.8c-8.9,0-17.4-6.4-17.9-6.8c-0.2-0.2-0.3-0.5-0.2-0.7c0.1-0.3,0.3-0.5,0.6-0.5&#10;&#9;&#9;c7-1.3,17.4-7.9,17.5-8c0.2-0.1,0.4-0.1,0.6-0.1c0.2,0.1,0.4,0.2,0.4,0.4l6.3,13.2c0.2,0.3,0,0.8-0.3,0.9&#10;&#9;&#9;C178.6,171.2,176.3,171.8,173.9,171.8L173.9,171.8z M158.1,164.8c3.4,2.3,13.2,7.9,21.4,4.5l-5.6-11.9&#10;&#9;&#9;C171.6,158.8,164.2,163.1,158.1,164.8L158.1,164.8z"/>
	<path class="st2_girl-swimming-87" d="M119.5,173.5c5.3,12.6,15.6,35.4,32.1,20.2c3.5-3.2,5.5-7.7,5.8-12.4c0.4-8.5-14.4-13-21.4-15"/>
	<path class="st1_girl-swimming-87" d="M141,199.4c-0.8,0-1.6-0.1-2.3-0.2c-9.9-2.1-16.3-17.3-19.8-25.4c-0.2-0.4,0-0.8,0.4-0.9&#10;&#9;&#9;c0.4-0.2,0.8,0,0.9,0.4l0,0c3.1,7.3,9.6,22.6,18.8,24.6c3.9,0.8,8-0.7,12.2-4.7c3.3-3.1,5.3-7.4,5.6-11.9&#10;&#9;&#9;c0.4-8.3-15.6-12.8-20.8-14.3c-0.4-0.1-0.6-0.4-0.6-0.8c0.1-0.4,0.4-0.6,0.8-0.6c0,0,0.1,0,0.1,0c9.6,2.7,22.3,7.2,21.9,15.7&#10;&#9;&#9;c-0.3,4.9-2.4,9.5-6,12.9C148.4,197.7,144.6,199.4,141,199.4L141,199.4z"/>
	<circle class="st1_girl-swimming-87" cx="152.9" cy="132.5" r="8.6"/>
	<path class="st1_girl-swimming-87" d="M152.9,141.8c-5.1,0-9.3-4.2-9.3-9.3c0-5.1,4.2-9.3,9.3-9.3c5.1,0,9.3,4.2,9.3,9.3&#10;&#9;&#9;C162.1,137.6,158,141.8,152.9,141.8z M152.9,124.7c-4.3,0-7.9,3.5-7.9,7.9c0,4.3,3.5,7.9,7.9,7.9s7.9-3.5,7.9-7.9l0,0&#10;&#9;&#9;C160.7,128.2,157.2,124.7,152.9,124.7z"/>
	<circle class="st1_girl-swimming-87" cx="170.1" cy="122.8" r="8.6"/>
	<path class="st1_girl-swimming-87" d="M170.1,132.1c-5.1,0-9.3-4.2-9.3-9.3c0-5.1,4.2-9.3,9.3-9.3c5.1,0,9.3,4.2,9.3,9.3&#10;&#9;&#9;C179.4,128,175.2,132.1,170.1,132.1z M170.1,115c-4.3,0-7.9,3.5-7.9,7.9c0,4.3,3.5,7.9,7.9,7.9s7.9-3.5,7.9-7.9l0,0&#10;&#9;&#9;C177.9,118.5,174.4,115,170.1,115L170.1,115z"/>
	<path class="st1_girl-swimming-87" d="M157.4,129.3c-0.2,0-0.4-0.1-0.5-0.2c-0.3-0.3-0.2-0.7,0-1c0,0,0,0,0,0c2.9-2.6,5.8-4.7,5.8-4.7&#10;&#9;&#9;c0.3-0.2,0.8-0.1,1,0.2c0.2,0.3,0.1,0.8-0.2,1c0,0-2.8,2-5.7,4.6C157.8,129.2,157.6,129.3,157.4,129.3L157.4,129.3z"/>
	<path class="st2_girl-swimming-87" d="M269.6,246.8c0,0,28.4-18.4,43.7-20.3s103,55.8,103,55.8s26.2-16.7,28.1-8.1s-21.4,37.8-29.1,40.2&#10;&#9;&#9;s-95.7-50.6-95.7-50.6s-37.3,48.4-45.6,28"/>
	<path class="st1_girl-swimming-87" d="M414.9,315.1c-10.7,0-84.1-43.8-95-50.4c-3.4,4.3-26.2,32.8-39.1,32.8c-0.4,0-0.7,0-1.1-0.1&#10;&#9;&#9;c-2.8-0.4-4.9-2.2-6.1-5.4c-0.1-0.4,0-0.8,0.4-0.9c0,0,0,0,0,0c0.4-0.1,0.8,0,0.9,0.4c0,0,0,0,0,0c1.1,2.7,2.8,4.2,5,4.5&#10;&#9;&#9;c12.6,1.7,39.1-32.3,39.3-32.6c0.2-0.3,0.6-0.4,0.9-0.2c35.3,21.2,89.7,52.1,95.1,50.5c3.5-1.1,10.9-8.5,17.8-17.5&#10;&#9;&#9;c7.4-9.8,11.6-18.3,10.8-21.8c-0.1-0.7-0.6-1.3-1.3-1.6c-4.9-2-20.2,6.7-25.8,10.2c-0.2,0.1-0.5,0.1-0.8,0&#10;&#9;&#9;c-0.9-0.6-87.7-57.6-102.6-55.7s-43.1,20-43.4,20.2c-0.3,0.2-0.8,0.1-1-0.2s-0.1-0.8,0.2-1c1.2-0.8,28.7-18.5,44-20.4&#10;&#9;&#9;c15.1-1.9,96.1,51,103.1,55.7c2.9-1.8,20.6-12.6,26.7-10c1.1,0.4,1.9,1.4,2.1,2.6c2.1,9.2-22,38.7-29.6,41&#10;&#9;&#9;C415.4,315.1,415.1,315.2,414.9,315.1L414.9,315.1z"/>
	<path class="st2_girl-swimming-87" d="M265.3,258c15.9-4.6,36.7-9.1,45.9-6.6c24.9,6.8,61.4,133.1,61.4,133.1s25.3-5.8,28.8-1.2s-36.7,37.4-44.3,31&#10;&#9;&#9;s-67.6-107.7-67.6-107.7s-15.7,5.8-25.6,8.1"/>
	<path class="st1_girl-swimming-87" d="M359.8,415.9c-1.1,0.1-2.3-0.3-3.2-1c-7.5-6.2-62.4-98.9-67.5-107.5c-2.9,1-16.3,5.9-25.2,7.9&#10;&#9;&#9;c-0.4,0.1-0.8-0.2-0.8-0.5s0.2-0.8,0.5-0.8c9.8-2.2,25.4-8,25.6-8.1c0.3-0.1,0.7,0,0.8,0.3c0.6,1,60,101.4,67.5,107.6&#10;&#9;&#9;c4.4,3.6,23.3-8.2,36.1-20.4c7-6.6,7.6-9.3,7.2-9.7c-2.3-3.1-18.5-0.7-28.1,1.5c-0.4,0.1-0.7-0.1-0.8-0.5&#10;&#9;&#9;c-0.4-1.3-36.7-126-60.9-132.6c-11-3-37.6,4.3-45.5,6.5c-0.4,0.1-0.8-0.1-0.9-0.5c-0.1-0.4,0.1-0.8,0.5-0.9&#10;&#9;&#9;c8-2.3,34.9-9.6,46.3-6.6c10.5,2.9,24.2,26.3,40.5,69.5c11.2,29.6,19.9,58.8,21.2,63.4c4.6-1,25.4-5.4,28.9-0.8&#10;&#9;&#9;c1.3,1.8-1.2,5.6-7.4,11.6C386,402.6,368.4,415.8,359.8,415.9L359.8,415.9z"/>
	<path class="st1_girl-swimming-87" d="M271.7,313.1c-20.9,10.2-62.7,5.9-74.4-9.7c-19.6-26,18.4-26.2,18.4-26.2s33.4-24.9,55.6-32.4&#10;&#9;&#9;c0,0,0.4,9.4,0.4,11.2c2.4-0.7,4.8-1.2,7.2-1.4C270,274.3,270.5,299.8,271.7,313.1L271.7,313.1z"/>
	<path class="st1_girl-swimming-87" d="M243,319.3c-4,0-8-0.2-12-0.7c-15.9-1.9-28.7-7.5-34.3-14.8s-7-13.3-4.7-17.9c4.4-8.8,21.1-9.4,23.4-9.4&#10;&#9;&#9;c2.7-2,34.4-25.2,55.6-32.4l0.9-0.3v0.9c0,0.3,0.3,7.4,0.4,10.4c2.1-0.6,4.3-1,6.5-1.2l1.2-0.1l-0.5,1.1c-9.2,20.8-8,47.7-7,58.2&#10;&#9;&#9;v0.5l-0.4,0.2C264.5,317.4,254.1,319.3,243,319.3L243,319.3z M270.6,245.7c-21.9,7.8-54.2,31.8-54.5,32l-0.2,0.1h-0.2&#10;&#9;&#9;c-0.2,0-18.2,0.2-22.4,8.7c-2.1,4.1-0.5,9.7,4.6,16.4c10.9,14.5,51.7,19.9,73.1,9.7c-0.9-10.8-2-36.7,6.7-57.3&#10;&#9;&#9;c-2,0.3-4,0.7-5.9,1.3l-0.9,0.3v-1C270.9,254.4,270.7,248,270.6,245.7L270.6,245.7z"/>
	<path class="st1_girl-swimming-87" d="M221.6,186.1c-0.3,0-0.6-0.2-0.7-0.5c0-0.1-3.2-10.8-6.3-20.4c-0.1-0.4,0-0.8,0.4-0.9s0.8,0,0.9,0.4&#10;&#9;&#9;c0,0,0,0,0,0.1c3.1,9.6,6.3,20.3,6.3,20.4c0.1,0.4-0.1,0.8-0.5,0.9C221.7,186.1,221.6,186.1,221.6,186.1z"/>
	<path class="st2_girl-swimming-87" d="M247.7,260.6c-0.4,0-0.7-0.3-0.7-0.7c0-0.3,0.2-0.6,0.6-0.7l23.9-4c0.4-0.1,0.8,0.2,0.8,0.5&#10;&#9;&#9;c0.1,0.4-0.2,0.8-0.5,0.8c0,0-0.1,0-0.1,0l-23.9,4L247.7,260.6L247.7,260.6z"/>
</g>
<g id="Wave_girl-swimming-87">
	<path class="st3_girl-swimming-87" d="M95.2,422.1c-0.4,0-0.7-0.3-0.7-0.7c0-0.3,0.2-0.6,0.5-0.6c14.2-4,27.1-11.6,37.5-22.1&#10;&#9;&#9;c0.2-0.2,0.4-0.2,0.6-0.2c0.2,0,0.4,0.2,0.5,0.4c3.3,7,12.2,9.6,19.3,8.7c7.6-1,14.2-5.2,20.9-9.6c0.3-0.2,0.8-0.1,1,0.2&#10;&#9;&#9;c0.2,0.3,0.1,0.7-0.2,0.9c-6.9,4.6-13.6,8.8-21.5,9.9c-7.1,1-16.3-1.3-20.3-8.6c-10.5,10.3-23.3,17.7-37.4,21.7&#10;&#9;&#9;C95.3,422,95.2,422,95.2,422.1L95.2,422.1z"/>
	<path class="st3_girl-swimming-87" d="M387.5,240c-0.4,0-0.7-0.3-0.7-0.7c0-0.3,0.2-0.6,0.5-0.7c4.4-0.9,8.5-4.2,11.3-8.9c2.6-4.3,3.9-9.4,5-14.2&#10;&#9;&#9;c0.1-0.4,0.5-0.6,0.8-0.5c0.2,0,0.3,0.2,0.4,0.3c2.6,4.3,8,6.9,13.9,6.8c4.8-0.2,9.8-2,15.4-5.6c0.3-0.2,0.8-0.1,1,0.2&#10;&#9;&#9;s0.1,0.8-0.2,1c-5.8,3.7-11.1,5.6-16.1,5.8c-5.8,0.2-11.2-2.2-14.2-6.1c-1,4.6-2.6,9-4.8,13.1c-3,5-7.5,8.5-12.2,9.5L387.5,240&#10;&#9;&#9;L387.5,240z"/>
	<path class="st3_girl-swimming-87" d="M43,196.6c-0.4,0-0.7-0.3-0.7-0.7c0-0.4,0.3-0.7,0.7-0.7c0,0,0,0,0,0c12.2-0.3,23.1-7.8,27.7-19.1&#10;&#9;&#9;c0.1-0.2,0.3-0.4,0.5-0.4c0.2-0.1,0.4,0,0.6,0.1c7.8,5.5,18.3,5,25.5-1.2c0.3-0.2,0.8-0.1,1,0.2c0.1,0.2,0.1,0.5,0,0.8&#10;&#9;&#9;c-7.5,6.4-18.3,7.1-26.5,1.8C66.7,188.9,55.5,196.4,43,196.6L43,196.6L43,196.6z"/>
	<path class="st3_girl-swimming-87" d="M381.3,359.4c-0.4,0-0.7-0.3-0.7-0.7c0-0.2,0.1-0.4,0.3-0.6c9-6.1,16.8-13.8,23-22.8c0.2-0.2,0.4-0.3,0.7-0.3&#10;&#9;&#9;c0.3,0,0.5,0.2,0.6,0.5c1.6,4.2,6.3,6.4,10.3,6.7c4.5,0.3,9.1-1.2,13.2-2.5l14.7-4.8c0.4-0.1,0.8,0,0.9,0.4c0.1,0.4,0,0.8-0.4,0.9&#10;&#9;&#9;c0,0,0,0-0.1,0L429,341c-4.2,1.4-8.9,2.9-13.7,2.6c-4.1-0.3-8.9-2.4-11-6.4c-6.2,8.7-13.8,16.1-22.6,22.1&#10;&#9;&#9;C381.6,359.3,381.5,359.4,381.3,359.4L381.3,359.4z"/>
	<path class="st3_girl-swimming-87" d="M299.9,157.8c-0.4,0-0.7-0.3-0.7-0.7c0-0.4,0.2-0.7,0.6-0.7c9.3-2.3,16.6-9.6,18.9-19c0.1-0.2,0.2-0.4,0.5-0.5&#10;&#9;&#9;c0.2-0.1,0.5,0,0.7,0.1c8,7,21,7.5,29.6,1.2c0.3-0.2,0.7-0.2,1,0.1c0.2,0.3,0.2,0.7-0.1,1c-8.8,6.5-21.9,6.2-30.5-0.5&#10;&#9;&#9;c-2.6,9.4-10.1,16.7-19.6,19L299.9,157.8L299.9,157.8z"/>
	<path class="st3_girl-swimming-87" d="M231.3,442.7c-0.4,0-0.7-0.3-0.7-0.7c0-0.3,0.2-0.6,0.5-0.7c12.1-4.2,18.5-16.9,24.1-29.6&#10;&#9;&#9;c0.1-0.2,0.2-0.3,0.4-0.4c0.2-0.1,0.4,0,0.6,0.1c10.1,6.2,24.5,4.9,33.5-2.9l0.5-0.4c1.1-1.1,2.4-2,3.9-2.5&#10;&#9;&#9;c1.1-0.2,2.3-0.3,3.5-0.1l0.8,0.1c5,0.3,9.8-1.7,13.1-5.3c0.3-0.3,0.7-0.3,1,0c0.3,0.3,0.3,0.7,0,1c0,0,0,0,0,0&#10;&#9;&#9;c-3.7,3.9-8.9,6-14.2,5.8l-0.9-0.1c-1-0.1-2-0.1-3,0.1c-1.3,0.5-2.4,1.2-3.3,2.2l-0.5,0.4c-9.6,8.2-23.3,9.6-34.4,3.5&#10;&#9;&#9;c-5.6,12.7-12.2,25.3-24.6,29.6C231.4,442.7,231.4,442.7,231.3,442.7L231.3,442.7z"/>
	<path class="st3_girl-swimming-87" d="M25.4,325.4c-0.2,0-0.4,0-0.6,0c-0.4-0.1-0.6-0.4-0.6-0.8c0.1-0.3,0.3-0.6,0.7-0.6c4.3,0.3,7.9-3,9.7-5&#10;&#9;&#9;c1.1-1.3,2.2-2.7,3.2-4c1.3-1.9,2.8-3.7,4.3-5.3c0.3-0.3,0.7-0.3,1,0c0,0,0,0,0,0c5.7,5.2,14.4,5.7,20.6,1c0.3-0.2,0.8-0.1,1,0.2&#10;&#9;&#9;c0.2,0.3,0.1,0.7-0.1,0.9c-6.2,5-16,4.7-22-0.6c-1.3,1.5-2.6,3-3.7,4.7c-1,1.4-2.1,2.8-3.2,4.1C33.7,322,30,325.5,25.4,325.4&#10;&#9;&#9;L25.4,325.4z"/>
	<path class="st3_girl-swimming-87" d="M226.7,129.8c-0.3,0-0.6-0.2-0.7-0.5c-0.1-0.4,0.1-0.8,0.4-0.9c5.3-1.8,9.5-5.8,11.4-11.1&#10;&#9;&#9;c0.4-1,0.9-2.4,2.2-2.8c0.9-0.2,1.8,0,2.5,0.4c5.4,2.3,11.5,1.9,16.6-1c0.3-0.2,0.8-0.1,1,0.3c0.2,0.3,0.1,0.8-0.2,1l0,0&#10;&#9;&#9;c-5.4,3.1-12,3.6-17.8,1.1c-0.5-0.3-1.1-0.4-1.7-0.4c-0.6,0.2-1,1.1-1.3,2c-2.1,5.6-6.6,10-12.3,11.9&#10;&#9;&#9;C226.8,129.8,226.7,129.8,226.7,129.8L226.7,129.8z"/>
</g>
</svg>